<svg width="540" height="269" viewBox="0 0 540 269" fill="none" xmlns="http://www.w3.org/2000/svg">
<g filter="url(#filter0_d_42_119)">
<path d="M3.111 221.422C6.919 220.13 10.863 219.484 14.943 219.484C19.023 219.484 22.406 220.351 25.092 222.085C27.778 223.819 29.121 226.471 29.121 230.041C29.121 233.611 27.863 236.62 25.347 239.068C22.831 241.482 19.805 242.689 16.269 242.689C13.685 242.689 12.393 241.703 12.393 239.731C12.393 239.119 12.512 238.473 12.75 237.793C13.668 238.031 14.501 238.15 15.249 238.15C17.595 238.15 19.363 237.504 20.553 236.212C21.777 234.92 22.389 233.135 22.389 230.857C22.389 228.545 21.743 226.828 20.451 225.706C19.159 224.584 17.357 224.023 15.045 224.023C13.855 224.023 12.41 224.227 10.71 224.635C10.438 228.817 10.302 232.523 10.302 235.753C10.302 244.797 10.659 251.342 11.373 255.388C10.285 255.796 9.129 256 7.905 256C6.681 256 5.61 255.609 4.692 254.827C3.808 254.045 3.366 253.008 3.366 251.716C3.366 250.424 3.536 248.18 3.876 244.984C4.216 241.754 4.386 239.17 4.386 237.232C4.386 231.316 3.961 226.046 3.111 221.422ZM38.2189 220.198C39.6469 219.722 40.9389 219.484 42.0949 219.484C43.8629 219.484 45.2399 220.113 46.2259 221.371C47.2119 222.595 47.9769 224.346 48.5209 226.624C48.6909 227.304 49.0309 228.8 49.5409 231.112C50.0849 233.424 50.5269 235.294 50.8669 236.722C51.9209 241.176 52.8729 244.627 53.7229 247.075C54.6069 249.523 56.0009 251.478 57.9049 252.94C57.4969 253.96 56.8169 254.776 55.8649 255.388C54.9469 256 53.9439 256.306 52.8559 256.306C50.3739 256.306 48.5549 254.436 47.3989 250.696C46.8549 248.962 46.3619 247.262 45.9199 245.596C44.7299 246.004 43.2509 246.208 41.4829 246.208C39.7489 246.208 37.6069 246.021 35.0569 245.647C34.0029 249.761 33.4759 252.855 33.4759 254.929C33.4759 255.371 33.4929 255.694 33.5269 255.898C33.0849 255.966 32.3369 256 31.2829 256C30.2289 256 29.2939 255.677 28.4779 255.031C27.6959 254.351 27.3049 253.399 27.3049 252.175C27.3049 250.475 28.9369 245.494 32.2009 237.232C35.4649 228.97 37.4709 223.292 38.2189 220.198ZM36.2299 241.363C37.5899 241.533 38.9669 241.618 40.3609 241.618C41.7889 241.618 43.3019 241.465 44.8999 241.159C44.5939 239.765 43.5569 234.427 41.7889 225.145C39.6809 230.619 37.8279 236.025 36.2299 241.363ZM76.7359 219.178C79.6939 219.178 82.2779 220.045 84.4879 221.779C86.6979 223.513 87.8029 225.757 87.8029 228.511C87.8029 229.973 87.3949 231.18 86.5789 232.132C85.7629 233.084 84.7599 233.56 83.5699 233.56C82.3799 233.56 81.4279 233.407 80.7139 233.101C80.8159 232.557 80.8669 231.979 80.8669 231.367C80.8329 229.225 80.3059 227.491 79.2859 226.165C78.2659 224.805 76.7699 224.125 74.7979 224.125C72.8599 224.125 71.0579 224.754 69.3919 226.012C68.4059 227.44 67.6409 229.31 67.0969 231.622C66.5529 233.934 66.2809 236.212 66.2809 238.456C66.2809 242.196 66.9949 245.341 68.4229 247.891C69.8849 250.407 72.1459 251.665 75.2059 251.665C78.0279 251.665 79.9319 250.594 80.9179 248.452C81.8359 246.582 82.2949 244.1 82.2949 241.006C84.0289 241.006 85.4739 241.329 86.6299 241.975C87.7859 242.587 88.3639 243.607 88.3639 245.035C88.3639 248.367 86.9019 251.138 83.9779 253.348C81.0539 255.524 77.7559 256.612 74.0839 256.612C69.2899 256.612 65.6519 255.031 63.1699 251.869C60.6879 248.673 59.4469 244.355 59.4469 238.915C59.4469 233.475 60.9939 228.834 64.0879 224.992C67.2159 221.116 71.4319 219.178 76.7359 219.178ZM107.708 236.11C109.476 239.714 111.635 243.063 114.185 246.157C116.769 249.251 119.183 251.138 121.427 251.818C121.427 253.246 121.053 254.351 120.305 255.133C119.557 255.915 118.486 256.306 117.092 256.306C115.256 256.306 113.131 255.031 110.717 252.481C108.337 249.897 106.246 247.007 104.444 243.811C102.642 240.615 101.384 237.81 100.67 235.396C104.036 233.934 106.909 231.673 109.289 228.613C111.669 225.519 112.859 222.476 112.859 219.484C114.321 219.484 115.579 219.739 116.633 220.249C117.721 220.759 118.265 221.575 118.265 222.697C118.265 224.465 117.211 226.607 115.103 229.123C112.995 231.639 110.53 233.968 107.708 236.11ZM100.517 255.388C99.4294 255.796 98.2734 256 97.0494 256C95.8254 256 94.7544 255.609 93.8364 254.827C92.9524 254.045 92.5104 252.974 92.5104 251.614C92.5104 250.254 92.6804 247.653 93.0204 243.811C93.3604 239.935 93.5304 236.841 93.5304 234.529C93.5304 228.579 93.1734 223.87 92.4594 220.402C93.5474 219.994 94.7034 219.79 95.9274 219.79C97.1514 219.79 98.2054 220.181 99.0894 220.963C100.007 221.745 100.466 222.816 100.466 224.176C100.466 225.536 100.296 228.154 99.9564 232.03C99.6164 235.872 99.4464 238.949 99.4464 241.261C99.4464 247.211 99.8034 251.92 100.517 255.388ZM148.082 248.962C148.49 249.88 148.694 250.917 148.694 252.073C148.694 253.229 148.286 254.232 147.47 255.082C146.688 255.898 145.719 256.306 144.563 256.306C140.959 256.306 135.315 256.102 127.631 255.694C127.019 255.66 126.475 255.473 125.999 255.133C125.523 254.759 125.285 254.3 125.285 253.756C125.285 251.954 125.421 248.911 125.693 244.627C125.999 240.343 126.152 236.348 126.152 232.642C126.152 228.902 125.795 224.618 125.081 219.79C127.597 219.994 130.98 220.096 135.23 220.096C139.48 220.096 143.543 219.79 147.419 219.178C147.827 219.926 148.031 220.827 148.031 221.881C148.031 222.901 147.623 223.819 146.807 224.635C146.025 225.417 145.039 225.808 143.849 225.808C142.693 225.808 140.823 225.638 138.239 225.298C135.689 224.958 133.802 224.788 132.578 224.788C132.306 228.222 132.153 231.452 132.119 234.478C134.261 234.682 136.556 234.784 139.004 234.784C141.486 234.784 143.611 234.427 145.379 233.713C145.787 234.461 145.991 235.362 145.991 236.416C145.991 237.436 145.583 238.371 144.767 239.221C143.985 240.037 143.033 240.445 141.911 240.445C140.823 240.445 139.191 240.241 137.015 239.833C134.839 239.391 133.19 239.17 132.068 239.17C132.068 244.542 132.187 248.486 132.425 251.002C134.057 251.138 135.332 251.206 136.25 251.206C140.738 251.206 144.682 250.458 148.082 248.962ZM169.438 238.66C170.968 241.89 172.906 244.712 175.252 247.126C177.598 249.54 179.927 251.104 182.239 251.818C182.239 253.246 181.865 254.351 181.117 255.133C180.369 255.915 179.298 256.306 177.904 256.306C176.102 256.306 174.045 255.15 171.733 252.838C169.421 250.492 167.398 247.738 165.664 244.576C163.964 241.38 162.961 238.575 162.655 236.161C165.103 236.161 167.109 235.515 168.673 234.223C170.271 232.897 171.07 231.027 171.07 228.613C171.07 225.553 169.166 224.023 165.358 224.023C164.134 224.023 162.638 224.227 160.87 224.635C160.632 229.225 160.513 232.931 160.513 235.753C160.513 244.797 160.87 251.342 161.584 255.388C160.496 255.796 159.34 256 158.116 256C156.892 256 155.821 255.609 154.903 254.827C154.019 254.045 153.577 253.008 153.577 251.716C153.577 250.424 153.747 248.18 154.087 244.984C154.427 241.754 154.597 239.17 154.597 237.232C154.597 231.282 154.172 225.995 153.322 221.371C157.912 220.113 162.281 219.484 166.429 219.484C174.011 219.484 177.802 222.187 177.802 227.593C177.802 229.973 176.986 232.217 175.354 234.325C173.756 236.399 171.784 237.844 169.438 238.66ZM201.909 230.806C202.045 230.126 202.113 229.429 202.113 228.715C202.113 225.417 200.498 223.768 197.268 223.768C195.806 223.768 194.565 224.074 193.545 224.686C192.593 225.808 192.117 227.151 192.117 228.715C192.117 229.735 192.559 230.619 193.443 231.367C194.327 232.081 195.415 232.642 196.707 233.05C198.033 233.458 199.461 233.968 200.991 234.58C202.521 235.192 203.932 235.855 205.224 236.569C206.55 237.249 207.655 238.286 208.539 239.68C209.423 241.04 209.865 242.655 209.865 244.525C209.865 248.095 208.488 251.002 205.734 253.246C203.014 255.49 199.733 256.612 195.891 256.612C192.797 256.612 190.162 255.847 187.986 254.317C185.844 252.753 184.773 250.577 184.773 247.789C184.773 246.361 185.198 245.171 186.048 244.219C186.932 243.233 187.969 242.74 189.159 242.74C190.383 242.74 191.284 242.893 191.862 243.199C191.59 244.219 191.454 245.137 191.454 245.953C191.454 247.789 191.964 249.251 192.984 250.339C194.038 251.393 195.483 251.92 197.319 251.92C199.155 251.92 200.634 251.444 201.756 250.492C202.878 249.54 203.439 248.282 203.439 246.718C203.439 245.12 202.81 243.811 201.552 242.791C200.328 241.771 198.832 240.955 197.064 240.343C195.296 239.731 193.528 239.085 191.76 238.405C189.992 237.725 188.479 236.722 187.221 235.396C185.997 234.036 185.385 232.336 185.385 230.296C185.385 227.1 186.762 224.448 189.516 222.34C192.304 220.232 195.449 219.178 198.951 219.178C201.535 219.178 203.762 219.705 205.632 220.759C207.536 221.779 208.488 223.343 208.488 225.451C208.488 226.981 207.995 228.29 207.009 229.378C206.023 230.432 204.782 230.959 203.286 230.959C202.878 230.959 202.419 230.908 201.909 230.806ZM237.189 220.198C238.617 219.722 239.909 219.484 241.065 219.484C242.833 219.484 244.21 220.113 245.196 221.371C246.182 222.595 246.947 224.346 247.491 226.624C247.661 227.304 248.001 228.8 248.511 231.112C249.055 233.424 249.497 235.294 249.837 236.722C250.891 241.176 251.843 244.627 252.693 247.075C253.577 249.523 254.971 251.478 256.875 252.94C256.467 253.96 255.787 254.776 254.835 255.388C253.917 256 252.914 256.306 251.826 256.306C249.344 256.306 247.525 254.436 246.369 250.696C245.825 248.962 245.332 247.262 244.89 245.596C243.7 246.004 242.221 246.208 240.453 246.208C238.719 246.208 236.577 246.021 234.027 245.647C232.973 249.761 232.446 252.855 232.446 254.929C232.446 255.371 232.463 255.694 232.497 255.898C232.055 255.966 231.307 256 230.253 256C229.199 256 228.264 255.677 227.448 255.031C226.666 254.351 226.275 253.399 226.275 252.175C226.275 250.475 227.907 245.494 231.171 237.232C234.435 228.97 236.441 223.292 237.189 220.198ZM235.2 241.363C236.56 241.533 237.937 241.618 239.331 241.618C240.759 241.618 242.272 241.465 243.87 241.159C243.564 239.765 242.527 234.427 240.759 225.145C238.651 230.619 236.798 236.025 235.2 241.363ZM281.316 220.3C282.404 219.756 283.543 219.484 284.733 219.484C285.957 219.484 286.943 219.858 287.691 220.606C288.473 221.354 288.864 222.255 288.864 223.309C288.864 224.363 288.711 226.692 288.405 230.296C288.099 233.866 287.946 236.705 287.946 238.813C287.946 245.579 288.252 251.206 288.864 255.694C287.776 256.102 286.552 256.306 285.192 256.306C283.866 256.306 282.829 256.085 282.081 255.643C279.905 254.385 274.822 246.429 266.832 231.775C266.696 233.101 266.628 236.212 266.628 241.108C266.628 245.97 267.002 250.73 267.75 255.388C266.696 255.796 265.557 256 264.333 256C263.109 256 262.106 255.609 261.324 254.827C260.576 254.045 260.202 253.11 260.202 252.022C260.202 250.934 260.355 248.656 260.661 245.188C261.001 241.72 261.171 239.102 261.171 237.334C261.171 230.568 260.848 224.958 260.202 220.504C261.154 220.028 262.548 219.79 264.384 219.79C266.22 219.79 267.512 220.521 268.26 221.983C273.292 232.217 278.103 240.887 282.693 247.993C282.591 241.465 282.54 238.014 282.54 237.64C282.54 231.282 282.132 225.502 281.316 220.3ZM294.168 253.705C295.222 248.639 295.749 243.386 295.749 237.946C295.749 232.506 295.324 226.998 294.474 221.422C299.098 220.13 303.195 219.484 306.765 219.484C312.069 219.484 316.098 220.878 318.852 223.666C321.64 226.42 323.034 230.619 323.034 236.263C323.034 241.907 321.453 246.667 318.291 250.543C315.163 254.385 310.811 256.306 305.235 256.306C301.427 256.306 297.738 255.439 294.168 253.705ZM302.073 224.635C301.767 228.783 301.614 232.812 301.614 236.722C301.614 240.598 301.801 245.29 302.175 250.798C303.569 251.274 305.133 251.512 306.867 251.512C308.601 251.512 310.097 251.121 311.355 250.339C312.647 249.523 313.633 248.418 314.313 247.024C315.639 244.372 316.302 241.125 316.302 237.283C316.302 233.577 315.588 230.517 314.16 228.103C312.596 225.383 310.165 224.023 306.867 224.023C305.065 224.023 303.467 224.227 302.073 224.635ZM378.7 222.646L378.445 231.061C378.445 235.685 378.581 239.833 378.853 243.505C379.125 247.143 379.737 251.104 380.689 255.388C379.941 256 378.751 256.306 377.119 256.306C373.957 256.306 372.376 254.929 372.376 252.175C372.376 249.897 372.478 246.412 372.682 241.72C372.92 237.028 373.039 233.356 373.039 230.704C371.203 233.356 369.265 236.637 367.225 240.547C365.219 244.423 364.216 246.803 364.216 247.687C364.216 248.571 364.301 249.251 364.471 249.727C363.723 250.203 362.72 250.441 361.462 250.441C360.238 250.441 359.201 250.101 358.351 249.421C357.535 248.741 356.838 247.806 356.26 246.616C355.716 245.426 354.73 243.097 353.302 239.629C351.908 236.127 350.633 233.118 349.477 230.602C348.593 236.076 348.151 240.921 348.151 245.137C348.151 249.353 348.287 252.77 348.559 255.388C347.471 255.796 346.383 256 345.295 256C343.119 256 342.031 254.912 342.031 252.736C342.031 251.07 342.405 247.755 343.153 242.791C343.935 237.793 344.326 233.577 344.326 230.143C344.326 226.709 344.139 223.496 343.765 220.504C345.601 220.028 347.029 219.79 348.049 219.79C349.919 219.79 351.177 220.453 351.823 221.779C352.843 223.921 354.339 227.338 356.311 232.03C358.317 236.688 359.949 240.275 361.207 242.791C361.547 242.077 362.329 240.547 363.553 238.201C364.811 235.821 365.848 233.798 366.664 232.132C367.514 230.432 368.364 228.426 369.214 226.114C370.098 223.768 370.659 221.728 370.897 219.994C372.121 219.654 373.311 219.484 374.467 219.484C375.657 219.484 376.66 219.739 377.476 220.249C378.292 220.759 378.7 221.558 378.7 222.646ZM409.978 237.436C409.978 233.39 409.145 230.126 407.479 227.644C405.847 225.128 403.28 223.87 399.778 223.87C397.67 223.87 395.8 224.55 394.168 225.91C393.25 227.338 392.519 229.259 391.975 231.673C391.465 234.087 391.21 236.382 391.21 238.558C391.21 242.57 392.026 245.783 393.658 248.197C395.29 250.611 397.874 251.818 401.41 251.818C403.348 251.818 404.997 251.036 406.357 249.472C408.771 246.65 409.978 242.638 409.978 237.436ZM399.676 256.612C394.712 256.612 390.938 254.98 388.354 251.716C385.77 248.418 384.478 244.117 384.478 238.813C384.478 233.475 386.076 228.868 389.272 224.992C392.468 221.116 396.531 219.178 401.461 219.178C406.425 219.178 410.199 220.844 412.783 224.176C415.401 227.508 416.71 231.843 416.71 237.181C416.71 242.519 415.112 247.092 411.916 250.9C408.72 254.708 404.64 256.612 399.676 256.612ZM438.456 255.592C437.028 256.068 435.736 256.306 434.58 256.306C432.846 256.306 431.486 255.677 430.5 254.419C429.548 253.127 428.766 251.308 428.154 248.962C428.018 248.452 427.542 246.582 426.726 243.352C425.128 237.028 423.836 232.455 422.85 229.633C421.864 226.777 420.419 224.618 418.515 223.156C418.923 222.136 419.586 221.32 420.504 220.708C421.456 220.096 422.561 219.79 423.819 219.79C425.077 219.79 426.114 220.283 426.93 221.269C427.746 222.221 428.392 223.394 428.868 224.788C429.378 226.182 429.82 227.525 430.194 228.817C430.568 230.109 430.959 231.707 431.367 233.611C431.809 235.515 432.149 237.062 432.387 238.252C432.659 239.408 433.067 241.414 433.611 244.27C434.189 247.092 434.614 249.149 434.886 250.441C440.598 235.549 443.454 225.604 443.454 220.606C443.454 220.164 443.437 219.841 443.403 219.637C443.913 219.535 444.44 219.484 444.984 219.484C446.344 219.484 447.449 219.824 448.299 220.504C449.183 221.15 449.625 222.085 449.625 223.309C449.625 225.009 447.942 230.041 444.576 238.405C441.244 246.735 439.204 252.464 438.456 255.592ZM475.947 248.962C476.355 249.88 476.559 250.917 476.559 252.073C476.559 253.229 476.151 254.232 475.335 255.082C474.553 255.898 473.584 256.306 472.428 256.306C468.824 256.306 463.18 256.102 455.496 255.694C454.884 255.66 454.34 255.473 453.864 255.133C453.388 254.759 453.15 254.3 453.15 253.756C453.15 251.954 453.286 248.911 453.558 244.627C453.864 240.343 454.017 236.348 454.017 232.642C454.017 228.902 453.66 224.618 452.946 219.79C455.462 219.994 458.845 220.096 463.095 220.096C467.345 220.096 471.408 219.79 475.284 219.178C475.692 219.926 475.896 220.827 475.896 221.881C475.896 222.901 475.488 223.819 474.672 224.635C473.89 225.417 472.904 225.808 471.714 225.808C470.558 225.808 468.688 225.638 466.104 225.298C463.554 224.958 461.667 224.788 460.443 224.788C460.171 228.222 460.018 231.452 459.984 234.478C462.126 234.682 464.421 234.784 466.869 234.784C469.351 234.784 471.476 234.427 473.244 233.713C473.652 234.461 473.856 235.362 473.856 236.416C473.856 237.436 473.448 238.371 472.632 239.221C471.85 240.037 470.898 240.445 469.776 240.445C468.688 240.445 467.056 240.241 464.88 239.833C462.704 239.391 461.055 239.17 459.933 239.17C459.933 244.542 460.052 248.486 460.29 251.002C461.922 251.138 463.197 251.206 464.115 251.206C468.603 251.206 472.547 250.458 475.947 248.962ZM497.302 238.66C498.832 241.89 500.77 244.712 503.116 247.126C505.462 249.54 507.791 251.104 510.103 251.818C510.103 253.246 509.729 254.351 508.981 255.133C508.233 255.915 507.162 256.306 505.768 256.306C503.966 256.306 501.909 255.15 499.597 252.838C497.285 250.492 495.262 247.738 493.528 244.576C491.828 241.38 490.825 238.575 490.519 236.161C492.967 236.161 494.973 235.515 496.537 234.223C498.135 232.897 498.934 231.027 498.934 228.613C498.934 225.553 497.03 224.023 493.222 224.023C491.998 224.023 490.502 224.227 488.734 224.635C488.496 229.225 488.377 232.931 488.377 235.753C488.377 244.797 488.734 251.342 489.448 255.388C488.36 255.796 487.204 256 485.98 256C484.756 256 483.685 255.609 482.767 254.827C481.883 254.045 481.441 253.008 481.441 251.716C481.441 250.424 481.611 248.18 481.951 244.984C482.291 241.754 482.461 239.17 482.461 237.232C482.461 231.282 482.036 225.995 481.186 221.371C485.776 220.113 490.145 219.484 494.293 219.484C501.875 219.484 505.666 222.187 505.666 227.593C505.666 229.973 504.85 232.217 503.218 234.325C501.62 236.399 499.648 237.844 497.302 238.66ZM529.774 230.806C529.91 230.126 529.978 229.429 529.978 228.715C529.978 225.417 528.363 223.768 525.133 223.768C523.671 223.768 522.43 224.074 521.41 224.686C520.458 225.808 519.982 227.151 519.982 228.715C519.982 229.735 520.424 230.619 521.308 231.367C522.192 232.081 523.28 232.642 524.572 233.05C525.898 233.458 527.326 233.968 528.856 234.58C530.386 235.192 531.797 235.855 533.089 236.569C534.415 237.249 535.52 238.286 536.404 239.68C537.288 241.04 537.73 242.655 537.73 244.525C537.73 248.095 536.353 251.002 533.599 253.246C530.879 255.49 527.598 256.612 523.756 256.612C520.662 256.612 518.027 255.847 515.851 254.317C513.709 252.753 512.638 250.577 512.638 247.789C512.638 246.361 513.063 245.171 513.913 244.219C514.797 243.233 515.834 242.74 517.024 242.74C518.248 242.74 519.149 242.893 519.727 243.199C519.455 244.219 519.319 245.137 519.319 245.953C519.319 247.789 519.829 249.251 520.849 250.339C521.903 251.393 523.348 251.92 525.184 251.92C527.02 251.92 528.499 251.444 529.621 250.492C530.743 249.54 531.304 248.282 531.304 246.718C531.304 245.12 530.675 243.811 529.417 242.791C528.193 241.771 526.697 240.955 524.929 240.343C523.161 239.731 521.393 239.085 519.625 238.405C517.857 237.725 516.344 236.722 515.086 235.396C513.862 234.036 513.25 232.336 513.25 230.296C513.25 227.1 514.627 224.448 517.381 222.34C520.169 220.232 523.314 219.178 526.816 219.178C529.4 219.178 531.627 219.705 533.497 220.759C535.401 221.779 536.353 223.343 536.353 225.451C536.353 226.981 535.86 228.29 534.874 229.378C533.888 230.432 532.647 230.959 531.151 230.959C530.743 230.959 530.284 230.908 529.774 230.806Z" fill="url(#paint0_linear_42_119)" shape-rendering="crispEdges"/>
</g>
<g filter="url(#filter1_d_42_119)">
<mask id="path-2-outside-1_42_119" maskUnits="userSpaceOnUse" x="71" y="42" width="418" height="142" fill="black">
<rect fill="white" x="71" y="42" width="418" height="142"/>
<path d="M136.455 87.598C136.943 85.158 137.187 82.657 137.187 80.095C137.187 68.261 131.392 62.344 119.802 62.344C114.556 62.344 110.103 63.442 106.443 65.638C103.027 69.664 101.319 74.483 101.319 80.095C101.319 83.755 102.905 86.927 106.077 89.611C109.249 92.173 113.153 94.186 117.789 95.65C122.547 97.114 127.671 98.944 133.161 101.14C138.651 103.336 143.714 105.715 148.35 108.277C153.108 110.717 157.073 114.438 160.245 119.44C163.417 124.32 165.003 130.115 165.003 136.825C165.003 149.635 160.062 160.066 150.18 168.118C140.42 176.17 128.647 180.196 114.861 180.196C103.759 180.196 94.3045 177.451 86.4965 171.961C78.8105 166.349 74.9675 158.541 74.9675 148.537C74.9675 143.413 76.4925 139.143 79.5425 135.727C82.7145 132.189 86.4355 130.42 90.7055 130.42C95.0975 130.42 98.3305 130.969 100.404 132.067C99.4285 135.727 98.9405 139.021 98.9405 141.949C98.9405 148.537 100.77 153.783 104.43 157.687C108.212 161.469 113.397 163.36 119.985 163.36C126.573 163.36 131.88 161.652 135.906 158.236C139.932 154.82 141.945 150.306 141.945 144.694C141.945 138.96 139.688 134.263 135.174 130.603C130.782 126.943 125.414 124.015 119.07 121.819C112.726 119.623 106.382 117.305 100.038 114.865C93.6945 112.425 88.2655 108.826 83.7515 104.068C79.3595 99.188 77.1635 93.088 77.1635 85.768C77.1635 74.3 82.1045 64.784 91.9865 57.22C101.99 49.656 113.275 45.874 125.841 45.874C135.113 45.874 143.104 47.765 149.814 51.547C156.646 55.207 160.062 60.819 160.062 68.383C160.062 73.873 158.293 78.57 154.755 82.474C151.217 86.256 146.764 88.147 141.396 88.147C139.932 88.147 138.285 87.964 136.455 87.598ZM186.144 47.521L224.757 48.07C244.765 48.07 259.405 47.338 268.677 45.874C270.019 48.436 270.69 51.364 270.69 54.658C270.69 57.952 269.226 60.941 266.298 63.625C263.37 66.187 259.832 67.468 255.684 67.468L234.639 65.089C234.639 65.943 234.334 69.725 233.724 76.435C232.016 92.905 231.162 109.436 231.162 126.028C231.162 142.62 232.443 159.212 235.005 175.804C230.979 177.268 226.77 178 222.378 178C217.986 178 214.204 176.78 211.032 174.34C207.86 171.778 206.274 167.996 206.274 162.994C206.274 157.87 206.884 148.903 208.104 136.093C209.324 123.283 209.934 110.839 209.934 98.761C209.934 86.561 209.324 75.215 208.104 64.723C193.342 65.455 181.813 67.529 173.517 70.945C172.053 68.139 171.321 65.028 171.321 61.612C171.321 58.074 172.724 54.841 175.53 51.913C178.336 48.985 181.874 47.521 186.144 47.521ZM298.609 49.534C303.733 47.826 308.369 46.972 312.517 46.972C318.861 46.972 323.802 49.229 327.34 53.743C330.878 58.135 333.623 64.418 335.575 72.592C336.185 75.032 337.405 80.4 339.235 88.696C341.187 96.992 342.773 103.702 343.993 108.826C347.775 124.808 351.191 137.191 354.241 145.975C357.413 154.759 362.415 161.774 369.247 167.02C367.783 170.68 365.343 173.608 361.927 175.804C358.633 178 355.034 179.098 351.13 179.098C342.224 179.098 335.697 172.388 331.549 158.968C329.597 152.746 327.828 146.646 326.242 140.668C321.972 142.132 316.665 142.864 310.321 142.864C304.099 142.864 296.413 142.193 287.263 140.851C283.481 155.613 281.59 166.715 281.59 174.157C281.59 175.743 281.651 176.902 281.773 177.634C280.187 177.878 277.503 178 273.721 178C269.939 178 266.584 176.841 263.656 174.523C260.85 172.083 259.447 168.667 259.447 164.275C259.447 158.175 265.303 140.302 277.015 110.656C288.727 81.01 295.925 60.636 298.609 49.534ZM291.472 125.479C296.352 126.089 301.293 126.394 306.295 126.394C311.419 126.394 316.848 125.845 322.582 124.747C321.484 119.745 317.763 100.591 311.419 67.285C303.855 86.927 297.206 106.325 291.472 125.479ZM439.196 115.78C444.686 127.37 451.64 137.496 460.058 146.158C468.476 154.82 476.833 160.432 485.129 162.994C485.129 168.118 483.787 172.083 481.103 174.889C478.419 177.695 474.576 179.098 469.574 179.098C463.108 179.098 455.727 174.95 447.431 166.654C439.135 158.236 431.876 148.354 425.654 137.008C419.554 125.54 415.955 115.475 414.857 106.813C423.641 106.813 430.839 104.495 436.451 99.859C442.185 95.101 445.052 88.391 445.052 79.729C445.052 68.749 438.22 63.259 424.556 63.259C420.164 63.259 414.796 63.991 408.452 65.455C407.598 81.925 407.171 95.223 407.171 105.349C407.171 137.801 408.452 161.286 411.014 175.804C407.11 177.268 402.962 178 398.57 178C394.178 178 390.335 176.597 387.041 173.791C383.869 170.985 382.283 167.264 382.283 162.628C382.283 157.992 382.893 149.94 384.113 138.472C385.333 126.882 385.943 117.61 385.943 110.656C385.943 89.306 384.418 70.335 381.368 53.743C397.838 49.229 413.515 46.972 428.399 46.972C455.605 46.972 469.208 56.671 469.208 76.069C469.208 84.609 466.28 92.661 460.424 100.225C454.69 107.667 447.614 112.852 439.196 115.78Z"/>
</mask>
<path d="M136.455 87.598C136.943 85.158 137.187 82.657 137.187 80.095C137.187 68.261 131.392 62.344 119.802 62.344C114.556 62.344 110.103 63.442 106.443 65.638C103.027 69.664 101.319 74.483 101.319 80.095C101.319 83.755 102.905 86.927 106.077 89.611C109.249 92.173 113.153 94.186 117.789 95.65C122.547 97.114 127.671 98.944 133.161 101.14C138.651 103.336 143.714 105.715 148.35 108.277C153.108 110.717 157.073 114.438 160.245 119.44C163.417 124.32 165.003 130.115 165.003 136.825C165.003 149.635 160.062 160.066 150.18 168.118C140.42 176.17 128.647 180.196 114.861 180.196C103.759 180.196 94.3045 177.451 86.4965 171.961C78.8105 166.349 74.9675 158.541 74.9675 148.537C74.9675 143.413 76.4925 139.143 79.5425 135.727C82.7145 132.189 86.4355 130.42 90.7055 130.42C95.0975 130.42 98.3305 130.969 100.404 132.067C99.4285 135.727 98.9405 139.021 98.9405 141.949C98.9405 148.537 100.77 153.783 104.43 157.687C108.212 161.469 113.397 163.36 119.985 163.36C126.573 163.36 131.88 161.652 135.906 158.236C139.932 154.82 141.945 150.306 141.945 144.694C141.945 138.96 139.688 134.263 135.174 130.603C130.782 126.943 125.414 124.015 119.07 121.819C112.726 119.623 106.382 117.305 100.038 114.865C93.6945 112.425 88.2655 108.826 83.7515 104.068C79.3595 99.188 77.1635 93.088 77.1635 85.768C77.1635 74.3 82.1045 64.784 91.9865 57.22C101.99 49.656 113.275 45.874 125.841 45.874C135.113 45.874 143.104 47.765 149.814 51.547C156.646 55.207 160.062 60.819 160.062 68.383C160.062 73.873 158.293 78.57 154.755 82.474C151.217 86.256 146.764 88.147 141.396 88.147C139.932 88.147 138.285 87.964 136.455 87.598ZM186.144 47.521L224.757 48.07C244.765 48.07 259.405 47.338 268.677 45.874C270.019 48.436 270.69 51.364 270.69 54.658C270.69 57.952 269.226 60.941 266.298 63.625C263.37 66.187 259.832 67.468 255.684 67.468L234.639 65.089C234.639 65.943 234.334 69.725 233.724 76.435C232.016 92.905 231.162 109.436 231.162 126.028C231.162 142.62 232.443 159.212 235.005 175.804C230.979 177.268 226.77 178 222.378 178C217.986 178 214.204 176.78 211.032 174.34C207.86 171.778 206.274 167.996 206.274 162.994C206.274 157.87 206.884 148.903 208.104 136.093C209.324 123.283 209.934 110.839 209.934 98.761C209.934 86.561 209.324 75.215 208.104 64.723C193.342 65.455 181.813 67.529 173.517 70.945C172.053 68.139 171.321 65.028 171.321 61.612C171.321 58.074 172.724 54.841 175.53 51.913C178.336 48.985 181.874 47.521 186.144 47.521ZM298.609 49.534C303.733 47.826 308.369 46.972 312.517 46.972C318.861 46.972 323.802 49.229 327.34 53.743C330.878 58.135 333.623 64.418 335.575 72.592C336.185 75.032 337.405 80.4 339.235 88.696C341.187 96.992 342.773 103.702 343.993 108.826C347.775 124.808 351.191 137.191 354.241 145.975C357.413 154.759 362.415 161.774 369.247 167.02C367.783 170.68 365.343 173.608 361.927 175.804C358.633 178 355.034 179.098 351.13 179.098C342.224 179.098 335.697 172.388 331.549 158.968C329.597 152.746 327.828 146.646 326.242 140.668C321.972 142.132 316.665 142.864 310.321 142.864C304.099 142.864 296.413 142.193 287.263 140.851C283.481 155.613 281.59 166.715 281.59 174.157C281.59 175.743 281.651 176.902 281.773 177.634C280.187 177.878 277.503 178 273.721 178C269.939 178 266.584 176.841 263.656 174.523C260.85 172.083 259.447 168.667 259.447 164.275C259.447 158.175 265.303 140.302 277.015 110.656C288.727 81.01 295.925 60.636 298.609 49.534ZM291.472 125.479C296.352 126.089 301.293 126.394 306.295 126.394C311.419 126.394 316.848 125.845 322.582 124.747C321.484 119.745 317.763 100.591 311.419 67.285C303.855 86.927 297.206 106.325 291.472 125.479ZM439.196 115.78C444.686 127.37 451.64 137.496 460.058 146.158C468.476 154.82 476.833 160.432 485.129 162.994C485.129 168.118 483.787 172.083 481.103 174.889C478.419 177.695 474.576 179.098 469.574 179.098C463.108 179.098 455.727 174.95 447.431 166.654C439.135 158.236 431.876 148.354 425.654 137.008C419.554 125.54 415.955 115.475 414.857 106.813C423.641 106.813 430.839 104.495 436.451 99.859C442.185 95.101 445.052 88.391 445.052 79.729C445.052 68.749 438.22 63.259 424.556 63.259C420.164 63.259 414.796 63.991 408.452 65.455C407.598 81.925 407.171 95.223 407.171 105.349C407.171 137.801 408.452 161.286 411.014 175.804C407.11 177.268 402.962 178 398.57 178C394.178 178 390.335 176.597 387.041 173.791C383.869 170.985 382.283 167.264 382.283 162.628C382.283 157.992 382.893 149.94 384.113 138.472C385.333 126.882 385.943 117.61 385.943 110.656C385.943 89.306 384.418 70.335 381.368 53.743C397.838 49.229 413.515 46.972 428.399 46.972C455.605 46.972 469.208 56.671 469.208 76.069C469.208 84.609 466.28 92.661 460.424 100.225C454.69 107.667 447.614 112.852 439.196 115.78Z" fill="url(#paint1_linear_42_119)"/>
<path d="M136.455 87.598L133.514 87.0096L132.925 89.9514L135.867 90.5397L136.455 87.598ZM106.443 65.638L104.9 63.0655L104.476 63.32L104.156 63.6971L106.443 65.638ZM106.077 89.611L104.14 91.9012L104.166 91.9233L104.192 91.9448L106.077 89.611ZM117.789 95.65L116.886 98.5107L116.897 98.5141L116.907 98.5173L117.789 95.65ZM133.161 101.14L132.047 103.925L133.161 101.14ZM148.35 108.277L146.899 110.903L146.94 110.925L146.982 110.946L148.35 108.277ZM160.245 119.44L157.712 121.047L157.721 121.061L157.73 121.075L160.245 119.44ZM150.18 168.118L148.285 165.792L148.278 165.798L148.271 165.804L150.18 168.118ZM86.4965 171.961L84.7274 174.384L84.749 174.4L84.7709 174.415L86.4965 171.961ZM79.5425 135.727L77.3088 133.724L77.3046 133.729L79.5425 135.727ZM100.404 132.067L103.303 132.84L103.918 130.533L101.808 129.416L100.404 132.067ZM104.43 157.687L102.242 159.739L102.275 159.774L102.309 159.808L104.43 157.687ZM135.906 158.236L137.847 160.524L135.906 158.236ZM135.174 130.603L133.254 132.908L133.269 132.921L133.285 132.933L135.174 130.603ZM119.07 121.819L120.052 118.984L119.07 121.819ZM100.038 114.865L101.115 112.065H101.115L100.038 114.865ZM83.7515 104.068L81.5216 106.075L81.5479 106.104L81.5751 106.133L83.7515 104.068ZM91.9865 57.22L90.1771 54.827L90.1701 54.8324L90.163 54.8378L91.9865 57.22ZM149.814 51.547L148.341 54.1604L148.369 54.1762L148.398 54.1914L149.814 51.547ZM154.755 82.474L156.946 84.5235L156.962 84.5061L156.978 84.4886L154.755 82.474ZM139.397 88.1863C139.925 85.547 140.187 82.8487 140.187 80.095H134.187C134.187 82.4653 133.962 84.769 133.514 87.0096L139.397 88.1863ZM140.187 80.095C140.187 73.7311 138.629 68.4041 134.985 64.6826C131.328 60.9496 126.076 59.344 119.802 59.344V65.344C125.119 65.344 128.559 66.6969 130.698 68.8809C132.848 71.0764 134.187 74.6249 134.187 80.095H140.187ZM119.802 59.344C114.137 59.344 109.122 60.5321 104.9 63.0655L107.987 68.2105C111.085 66.3519 114.976 65.344 119.802 65.344V59.344ZM104.156 63.6971C100.25 68.301 98.3195 73.8204 98.3195 80.095H104.319C104.319 75.1455 105.805 71.027 108.731 67.5789L104.156 63.6971ZM98.3195 80.095C98.3195 84.7629 100.396 88.7335 104.14 91.9012L108.015 87.3208C105.415 85.1205 104.319 82.7471 104.319 80.095H98.3195ZM104.192 91.9448C107.706 94.7828 111.96 96.9551 116.886 98.5107L118.693 92.7892C114.347 91.4168 110.793 89.5632 107.962 87.2772L104.192 91.9448ZM116.907 98.5173C121.574 99.9532 126.62 101.754 132.047 103.925L134.276 98.3546C128.723 96.1336 123.521 94.2747 118.672 92.7827L116.907 98.5173ZM132.047 103.925C137.435 106.08 142.384 108.407 146.899 110.903L149.802 105.651C145.045 103.023 139.868 100.592 134.276 98.3546L132.047 103.925ZM146.982 110.946C151.213 113.117 154.795 116.446 157.712 121.047L162.779 117.833C159.352 112.43 155.003 108.317 149.719 105.608L146.982 110.946ZM157.73 121.075C160.54 125.397 162.003 130.604 162.003 136.825H168.003C168.003 129.626 166.295 123.243 162.761 117.805L157.73 121.075ZM162.003 136.825C162.003 148.738 157.464 158.313 148.285 165.792L152.075 170.444C162.661 161.819 168.003 150.532 168.003 136.825H162.003ZM148.271 165.804C139.098 173.372 128.018 177.196 114.861 177.196V183.196C129.277 183.196 141.743 178.968 152.09 170.432L148.271 165.804ZM114.861 177.196C104.273 177.196 95.446 174.586 88.222 169.507L84.7709 174.415C93.163 180.316 103.246 183.196 114.861 183.196V177.196ZM88.2655 169.538C81.3985 164.524 77.9675 157.641 77.9675 148.537H71.9675C71.9675 159.441 76.2225 168.174 84.7274 174.384L88.2655 169.538ZM77.9675 148.537C77.9675 144.056 79.2805 140.525 81.7803 137.725L77.3046 133.729C73.7045 137.761 71.9675 142.77 71.9675 148.537H77.9675ZM81.7762 137.73C84.4507 134.747 87.3895 133.42 90.7055 133.42V127.42C85.4814 127.42 80.9782 129.631 77.3088 133.724L81.7762 137.73ZM90.7055 133.42C94.9649 133.42 97.5916 133.972 99.0008 134.718L101.808 129.416C99.0694 127.966 95.23 127.42 90.7055 127.42V133.42ZM97.5058 131.294C96.4811 135.137 95.9405 138.697 95.9405 141.949H101.94C101.94 139.345 102.376 136.317 103.303 132.84L97.5058 131.294ZM95.9405 141.949C95.9405 149.114 97.9464 155.157 102.242 159.739L106.619 155.635C103.595 152.409 101.94 147.96 101.94 141.949H95.9405ZM102.309 159.808C106.778 164.278 112.798 166.36 119.985 166.36V160.36C113.997 160.36 109.646 158.66 106.552 155.566L102.309 159.808ZM119.985 166.36C127.103 166.36 133.155 164.505 137.847 160.524L133.966 155.948C130.606 158.799 126.044 160.36 119.985 160.36V166.36ZM137.847 160.524C142.592 156.498 144.945 151.124 144.945 144.694H138.945C138.945 149.488 137.273 153.142 133.966 155.948L137.847 160.524ZM144.945 144.694C144.945 138.041 142.269 132.493 137.064 128.273L133.285 132.933C137.108 136.033 138.945 139.879 138.945 144.694H144.945ZM137.095 128.298C132.381 124.37 126.68 121.278 120.052 118.984L118.089 124.654C124.149 126.752 129.184 129.516 133.254 132.908L137.095 128.298ZM120.052 118.984C113.74 116.799 107.428 114.493 101.115 112.065L98.9615 117.665C105.337 120.117 111.713 122.447 118.089 124.654L120.052 118.984ZM101.115 112.065C95.1724 109.779 90.1233 106.425 85.9279 102.003L81.5751 106.133C86.4076 111.227 92.2165 115.071 98.9615 117.665L101.115 112.065ZM85.9813 102.061C82.1433 97.7966 80.1635 92.4386 80.1635 85.768H74.1635C74.1635 93.7374 76.5757 100.579 81.5216 106.075L85.9813 102.061ZM80.1635 85.768C80.1635 75.3221 84.5966 66.6544 93.8099 59.6022L90.163 54.8378C79.6123 62.9136 74.1635 73.2779 74.1635 85.768H80.1635ZM93.7958 59.613C103.278 52.4437 113.927 48.874 125.841 48.874V42.874C112.624 42.874 100.703 46.8683 90.1771 54.827L93.7958 59.613ZM125.841 48.874C134.702 48.874 142.164 50.6788 148.341 54.1604L151.288 48.9335C144.045 44.8512 135.525 42.874 125.841 42.874V48.874ZM148.398 54.1914C151.427 55.8144 153.555 57.7884 154.938 60.0608C156.319 62.3293 157.062 65.0664 157.062 68.383H163.062C163.062 64.1356 162.098 60.2847 160.063 56.9412C158.03 53.6016 155.034 50.9396 151.231 48.9026L148.398 54.1914ZM157.062 68.383C157.062 73.1627 155.548 77.1322 152.533 80.4594L156.978 84.4886C161.039 80.0078 163.062 74.5833 163.062 68.383H157.062ZM152.565 80.4245C149.617 83.5756 145.968 85.147 141.396 85.147V91.147C147.561 91.147 152.818 88.9364 156.946 84.5235L152.565 80.4245ZM141.396 85.147C140.175 85.147 138.73 84.9935 137.044 84.6563L135.867 90.5397C137.841 90.9345 139.69 91.147 141.396 91.147V85.147ZM186.144 47.521L186.187 44.5213L186.166 44.521H186.144V47.521ZM224.757 48.07L224.715 51.0697L224.736 51.07H224.757V48.07ZM268.677 45.874L271.335 44.482L270.336 42.5749L268.209 42.9107L268.677 45.874ZM266.298 63.625L268.274 65.8827L268.3 65.8599L268.325 65.8365L266.298 63.625ZM255.684 67.468L255.347 70.449L255.515 70.468H255.684V67.468ZM234.639 65.089L234.976 62.108L231.639 61.7308V65.089H234.639ZM233.724 76.435L236.708 76.7445L236.71 76.7255L236.712 76.7066L233.724 76.435ZM235.005 175.804L236.03 178.623L238.346 177.781L237.97 175.346L235.005 175.804ZM211.032 174.34L209.147 176.674L209.175 176.696L209.203 176.718L211.032 174.34ZM208.104 136.093L211.091 136.377L208.104 136.093ZM208.104 64.723L211.084 64.3765L210.76 61.5876L207.956 61.7267L208.104 64.723ZM173.517 70.945L170.857 72.3327L172.125 74.7625L174.66 73.719L173.517 70.945ZM175.53 51.913L177.696 53.9887V53.9887L175.53 51.913ZM186.102 50.5207L224.715 51.0697L224.8 45.0703L186.187 44.5213L186.102 50.5207ZM224.757 51.07C244.788 51.07 259.626 50.3402 269.145 48.8373L268.209 42.9107C259.184 44.3357 244.743 45.07 224.757 45.07V51.07ZM266.02 47.266C267.107 49.3421 267.69 51.7809 267.69 54.658H273.69C273.69 50.9471 272.931 47.5299 271.335 44.482L266.02 47.266ZM267.69 54.658C267.69 56.9402 266.717 59.171 264.271 61.4135L268.325 65.8365C271.735 62.711 273.69 58.9638 273.69 54.658H267.69ZM264.323 61.3673C261.98 63.4174 259.158 64.468 255.684 64.468V70.468C260.507 70.468 264.761 68.9566 268.274 65.8827L264.323 61.3673ZM256.021 64.487L234.976 62.108L234.302 68.07L255.347 70.449L256.021 64.487ZM231.639 65.089C231.639 65.7661 231.356 69.3493 230.737 76.1634L236.712 76.7066C237.312 70.1007 237.639 66.1199 237.639 65.089H231.639ZM230.74 76.1255C229.022 92.6986 228.162 109.333 228.162 126.028H234.162C234.162 109.539 235.011 93.1114 236.708 76.7445L230.74 76.1255ZM228.162 126.028C228.162 142.775 229.455 159.52 232.04 176.262L237.97 175.346C235.431 158.904 234.162 142.465 234.162 126.028H228.162ZM233.98 172.985C230.291 174.326 226.43 175 222.378 175V181C227.111 181 231.668 180.21 236.03 178.623L233.98 172.985ZM222.378 175C218.58 175 215.457 173.959 212.861 171.962L209.203 176.718C212.951 179.601 217.393 181 222.378 181V175ZM212.917 172.006C210.609 170.142 209.274 167.316 209.274 162.994H203.274C203.274 168.676 205.111 173.414 209.147 176.674L212.917 172.006ZM209.274 162.994C209.274 158.029 209.87 149.192 211.091 136.377L205.118 135.809C203.898 148.614 203.274 157.711 203.274 162.994H209.274ZM211.091 136.377C212.319 123.479 212.934 110.94 212.934 98.761H206.934C206.934 110.738 206.329 123.087 205.118 135.809L211.091 136.377ZM212.934 98.761C212.934 86.4625 212.319 74.9995 211.084 64.3765L205.124 65.0695C206.329 75.4305 206.934 86.6595 206.934 98.761H212.934ZM207.956 61.7267C193.044 62.4661 181.126 64.5677 172.375 68.171L174.66 73.719C182.501 70.4903 193.641 68.4439 208.253 67.7193L207.956 61.7267ZM176.177 69.5573C174.954 67.2132 174.321 64.584 174.321 61.612H168.321C168.321 65.472 169.152 69.0648 170.857 72.3327L176.177 69.5573ZM174.321 61.612C174.321 58.9615 175.341 56.4463 177.696 53.9887L173.364 49.8373C170.107 53.2357 168.321 57.1865 168.321 61.612H174.321ZM177.696 53.9887C179.904 51.6852 182.644 50.521 186.144 50.521V44.521C181.105 44.521 176.769 46.2848 173.364 49.8373L177.696 53.9887ZM298.609 49.534L297.66 46.6879L296.084 47.2135L295.693 48.829L298.609 49.534ZM327.34 53.743L324.979 55.5936L324.991 55.6094L325.004 55.625L327.34 53.743ZM335.575 72.592L332.657 73.2888L332.661 73.3042L332.665 73.3196L335.575 72.592ZM339.235 88.696L336.306 89.3422L336.31 89.3627L336.315 89.3831L339.235 88.696ZM343.993 108.826L346.913 108.135L346.912 108.131L343.993 108.826ZM354.241 145.975L351.407 146.959L351.413 146.977L351.42 146.994L354.241 145.975ZM369.247 167.02L372.033 168.134L372.877 166.024L371.074 164.641L369.247 167.02ZM361.927 175.804L360.305 173.28L360.284 173.294L360.263 173.308L361.927 175.804ZM331.549 158.968L334.415 158.082L334.412 158.07L331.549 158.968ZM326.242 140.668L329.142 139.899L328.316 136.786L325.269 137.83L326.242 140.668ZM287.263 140.851L287.699 137.883L285.027 137.491L284.357 140.106L287.263 140.851ZM281.773 177.634L282.229 180.599L285.232 180.137L284.732 177.141L281.773 177.634ZM263.656 174.523L261.688 176.787L261.74 176.832L261.794 176.875L263.656 174.523ZM277.015 110.656L274.225 109.554L277.015 110.656ZM291.472 125.479L288.598 124.619L287.581 128.016L291.1 128.456L291.472 125.479ZM322.582 124.747L323.146 127.693L326.173 127.114L325.512 124.104L322.582 124.747ZM311.419 67.285L314.366 66.7237L312.399 56.3937L308.62 66.2069L311.419 67.285ZM299.558 52.38C304.463 50.7449 308.772 49.972 312.517 49.972V43.972C307.966 43.972 303.003 44.9071 297.66 46.6879L299.558 52.38ZM312.517 49.972C318.051 49.972 322.075 51.8889 324.979 55.5936L329.701 51.8924C325.529 46.5691 319.671 43.972 312.517 43.972V49.972ZM325.004 55.625C328.16 59.5423 330.762 65.3539 332.657 73.2888L338.493 71.8952C336.484 63.4821 333.597 56.7277 329.676 51.861L325.004 55.625ZM332.665 73.3196C333.263 75.7112 334.473 81.0358 336.306 89.3422L342.165 88.0498C340.337 79.7641 339.108 74.3528 338.486 71.8644L332.665 73.3196ZM336.315 89.3831C338.267 97.6803 339.854 104.393 341.075 109.521L346.912 108.131C345.692 103.011 344.107 96.3037 342.155 88.0089L336.315 89.3831ZM341.074 109.517C344.864 125.535 348.308 138.033 351.407 146.959L357.075 144.991C354.075 136.349 350.686 124.081 346.913 108.135L341.074 109.517ZM351.42 146.994C354.769 156.27 360.095 163.775 367.42 169.399L371.074 164.641C364.735 159.773 360.057 153.248 357.063 144.956L351.42 146.994ZM366.462 165.906C365.237 168.968 363.213 171.411 360.305 173.28L363.549 178.328C367.473 175.805 370.33 172.392 372.033 168.134L366.462 165.906ZM360.263 173.308C357.455 175.18 354.433 176.098 351.13 176.098V182.098C355.635 182.098 359.812 180.82 363.591 178.3L360.263 173.308ZM351.13 176.098C347.532 176.098 344.437 174.781 341.706 171.974C338.897 169.086 336.414 164.547 334.415 158.082L328.683 159.854C330.833 166.809 333.687 172.335 337.405 176.157C341.201 180.06 345.822 182.098 351.13 182.098V176.098ZM334.412 158.07C332.472 151.888 330.716 145.831 329.142 139.899L323.342 141.437C324.941 147.461 326.722 153.604 328.687 159.866L334.412 158.07ZM325.269 137.83C321.411 139.153 316.458 139.864 310.321 139.864V145.864C316.873 145.864 322.533 145.111 327.215 143.506L325.269 137.83ZM310.321 139.864C304.297 139.864 296.767 139.213 287.699 137.883L286.828 143.819C296.06 145.173 303.902 145.864 310.321 145.864V139.864ZM284.357 140.106C280.563 154.914 278.59 166.319 278.59 174.157H284.59C284.59 167.111 286.399 156.312 290.169 141.596L284.357 140.106ZM278.59 174.157C278.59 175.766 278.649 177.135 278.814 178.127L284.732 177.141C284.654 176.669 284.59 175.72 284.59 174.157H278.59ZM281.317 174.669C279.98 174.875 277.499 175 273.721 175V181C277.507 181 280.395 180.881 282.229 180.599L281.317 174.669ZM273.721 175C270.606 175 267.909 174.064 265.518 172.171L261.794 176.875C265.259 179.618 269.273 181 273.721 181V175ZM265.625 172.259C263.594 170.493 262.447 167.972 262.447 164.275H256.447C256.447 169.362 258.106 173.673 261.688 176.787L265.625 172.259ZM262.447 164.275C262.447 163.126 262.739 161.154 263.46 158.204C264.166 155.311 265.239 151.658 266.69 147.229C269.591 138.375 273.958 126.558 279.805 111.758L274.225 109.554C268.36 124.4 263.943 136.343 260.988 145.361C259.511 149.869 258.388 153.681 257.631 156.781C256.887 159.824 256.447 162.374 256.447 164.275H262.447ZM279.805 111.758C291.509 82.1345 298.785 61.574 301.525 50.239L295.693 48.829C293.066 59.698 285.946 79.8855 274.225 109.554L279.805 111.758ZM291.1 128.456C296.106 129.082 301.171 129.394 306.295 129.394V123.394C301.415 123.394 296.599 123.096 291.844 122.502L291.1 128.456ZM306.295 129.394C311.633 129.394 317.252 128.822 323.146 127.693L322.018 121.801C316.445 122.868 311.206 123.394 306.295 123.394V129.394ZM325.512 124.104C324.426 119.154 320.716 100.058 314.366 66.7237L308.472 67.8463C314.811 101.124 318.542 120.336 319.652 125.39L325.512 124.104ZM308.62 66.2069C301.029 85.9168 294.355 105.387 288.598 124.619L294.346 126.339C300.057 107.263 306.681 87.9372 314.219 68.3631L308.62 66.2069ZM439.196 115.78L438.211 112.947L435.054 114.044L436.485 117.064L439.196 115.78ZM460.058 146.158L462.21 144.067L460.058 146.158ZM485.129 162.994H488.129V160.781L486.014 160.128L485.129 162.994ZM481.103 174.889L478.935 172.815L481.103 174.889ZM447.431 166.654L445.294 168.76L445.302 168.768L445.31 168.775L447.431 166.654ZM425.654 137.008L423.005 138.417L423.014 138.434L423.024 138.451L425.654 137.008ZM414.857 106.813V103.813H411.453L411.881 107.19L414.857 106.813ZM436.451 99.859L438.362 102.172L438.367 102.168L436.451 99.859ZM408.452 65.455L407.777 62.5318L405.573 63.0405L405.456 65.2997L408.452 65.455ZM411.014 175.804L412.067 178.613L414.402 177.738L413.968 175.283L411.014 175.804ZM387.041 173.791L385.053 176.038L385.074 176.057L385.096 176.075L387.041 173.791ZM384.113 138.472L387.096 138.789L387.097 138.786L384.113 138.472ZM381.368 53.743L380.575 50.8497L377.92 51.5775L378.418 54.2854L381.368 53.743ZM460.424 100.225L458.052 98.3885L458.048 98.394L460.424 100.225ZM436.485 117.064C442.107 128.934 449.245 139.336 457.907 148.249L462.21 144.067C454.035 135.656 447.265 125.806 441.907 114.496L436.485 117.064ZM457.907 148.249C466.545 157.138 475.316 163.103 484.244 165.86L486.014 160.128C478.35 157.761 470.407 152.502 462.21 144.067L457.907 148.249ZM482.129 162.994C482.129 167.6 480.932 170.728 478.935 172.815L483.271 176.963C486.642 173.438 488.129 168.636 488.129 162.994H482.129ZM478.935 172.815C476.969 174.871 474.006 176.098 469.574 176.098V182.098C475.146 182.098 479.87 180.519 483.271 176.963L478.935 172.815ZM469.574 176.098C464.345 176.098 457.703 172.683 449.552 164.533L445.31 168.775C453.751 177.217 461.871 182.098 469.574 182.098V176.098ZM449.568 164.548C441.484 156.345 434.386 146.691 428.285 135.566L423.024 138.451C429.366 150.017 436.786 160.127 445.294 168.76L449.568 164.548ZM428.303 135.599C422.298 124.311 418.869 114.606 417.833 106.436L411.881 107.19C413.041 116.344 416.81 126.769 423.005 138.417L428.303 135.599ZM414.857 109.813C424.189 109.813 432.107 107.339 438.362 102.172L434.54 97.5461C429.571 101.651 423.094 103.813 414.857 103.813V109.813ZM438.367 102.168C444.903 96.7439 448.052 89.1218 448.052 79.729H442.052C442.052 87.6602 439.467 93.4581 434.535 97.5503L438.367 102.168ZM448.052 79.729C448.052 73.5815 446.107 68.4932 441.807 65.038C437.633 61.6834 431.711 60.259 424.556 60.259V66.259C431.065 66.259 435.391 67.5796 438.049 69.715C440.581 71.7497 442.052 74.8965 442.052 79.729H448.052ZM424.556 60.259C419.857 60.259 414.247 61.0387 407.777 62.5318L409.127 68.3782C415.345 66.9432 420.472 66.259 424.556 66.259V60.259ZM405.456 65.2997C404.601 81.7937 404.171 95.1494 404.171 105.349H410.171C410.171 95.2966 410.595 82.0563 411.448 65.6103L405.456 65.2997ZM404.171 105.349C404.171 137.819 405.449 161.53 408.06 176.325L413.968 175.283C411.455 161.042 410.171 137.783 410.171 105.349H404.171ZM409.961 172.995C406.411 174.326 402.622 175 398.57 175V181C403.302 181 407.809 180.21 412.067 178.613L409.961 172.995ZM398.57 175C394.879 175 391.729 173.843 388.986 171.507L385.096 176.075C388.941 179.351 393.477 181 398.57 181V175ZM389.029 171.544C386.566 169.365 385.283 166.496 385.283 162.628H379.283C379.283 168.032 381.172 172.605 385.053 176.038L389.029 171.544ZM385.283 162.628C385.283 158.169 385.876 150.261 387.096 138.789L381.13 138.155C379.91 149.619 379.283 157.815 379.283 162.628H385.283ZM387.097 138.786C388.321 127.151 388.943 117.761 388.943 110.656H382.943C382.943 117.459 382.345 126.613 381.13 138.158L387.097 138.786ZM388.943 110.656C388.943 89.1695 387.409 70.0113 384.319 53.2006L378.418 54.2854C381.427 70.6587 382.943 89.4425 382.943 110.656H388.943ZM382.161 56.6363C398.41 52.1829 413.819 49.972 428.399 49.972V43.972C413.211 43.972 397.266 46.2751 380.575 50.8497L382.161 56.6363ZM428.399 49.972C441.736 49.972 451.201 52.3657 457.264 56.6889C463.141 60.8789 466.208 67.1607 466.208 76.069H472.208C472.208 65.5793 468.474 57.3126 460.747 51.8036C453.208 46.4278 442.268 43.972 428.399 43.972V49.972ZM466.208 76.069C466.208 83.8646 463.552 91.2836 458.052 98.3885L462.796 102.062C469.008 94.0384 472.208 85.3534 472.208 76.069H466.208ZM458.048 98.394C452.65 105.4 446.047 110.221 438.211 112.947L440.182 118.613C449.181 115.483 456.731 109.934 462.801 102.056L458.048 98.394Z" fill="url(#paint2_linear_42_119)" mask="url(#path-2-outside-1_42_119)"/>
</g>
<defs>
<filter id="filter0_d_42_119" x="3.11101" y="219.178" width="536.619" height="39.434" filterUnits="userSpaceOnUse" color-interpolation-filters="sRGB">
<feFlood flood-opacity="0" result="BackgroundImageFix"/>
<feColorMatrix in="SourceAlpha" type="matrix" values="0 0 0 0 0 0 0 0 0 0 0 0 0 0 0 0 0 0 127 0" result="hardAlpha"/>
<feOffset dx="2" dy="2"/>
<feComposite in2="hardAlpha" operator="out"/>
<feColorMatrix type="matrix" values="0 0 0 0 0.355833 0 0 0 0 0.347501 0 0 0 0 0.272509 0 0 0 1 0"/>
<feBlend mode="normal" in2="BackgroundImageFix" result="effect1_dropShadow_42_119"/>
<feBlend mode="normal" in="SourceGraphic" in2="effect1_dropShadow_42_119" result="shape"/>
</filter>
<filter id="filter1_d_42_119" x="74.9675" y="45.874" width="415.162" height="140.322" filterUnits="userSpaceOnUse" color-interpolation-filters="sRGB">
<feFlood flood-opacity="0" result="BackgroundImageFix"/>
<feColorMatrix in="SourceAlpha" type="matrix" values="0 0 0 0 0 0 0 0 0 0 0 0 0 0 0 0 0 0 127 0" result="hardAlpha"/>
<feOffset dx="5" dy="6"/>
<feComposite in2="hardAlpha" operator="out"/>
<feColorMatrix type="matrix" values="0 0 0 0 0.297889 0 0 0 0 0.43783 0 0 0 0 0.539167 0 0 0 0.79 0"/>
<feBlend mode="normal" in2="BackgroundImageFix" result="effect1_dropShadow_42_119"/>
<feBlend mode="normal" in="SourceGraphic" in2="effect1_dropShadow_42_119" result="shape"/>
</filter>
<linearGradient id="paint0_linear_42_119" x1="270" y1="206" x2="270" y2="280.5" gradientUnits="userSpaceOnUse">
<stop offset="0.241" stop-color="white"/>
<stop offset="1" stop-color="#FEC32C" stop-opacity="0.7"/>
</linearGradient>
<linearGradient id="paint1_linear_42_119" x1="251.5" y1="0" x2="251.5" y2="224" gradientUnits="userSpaceOnUse">
<stop offset="0.276" stop-color="#BBF3FF"/>
<stop offset="0.901" stop-color="#2983C1"/>
<stop offset="1" stop-color="#064E82"/>
</linearGradient>
<linearGradient id="paint2_linear_42_119" x1="251.5" y1="0" x2="251.5" y2="224" gradientUnits="userSpaceOnUse">
<stop offset="0.246" stop-color="#BBF2FF"/>
<stop offset="0.801" stop-color="#4290C0"/>
</linearGradient>
</defs>
</svg>
